<?xml version="1.0" encoding="UTF-8"?>
<svg id="Camada_2" data-name="Camada 2" xmlns="http://www.w3.org/2000/svg" viewBox="0 0 377.25 312.39">
  <g id="Camada_1-2" data-name="Camada 1">
    <g id="add_cong">
      <path d="M358.11,312.39c-14.17-.15-29.69-.23-48.82-.23-10.08,0-20.16,.02-30.24,.04-10.08,.02-20.15,.04-30.23,.04h-103.85c-43.35,0-86.68,0-130.03,0C6.44,312.23,.02,305.98,0,297.71c-.02-8.36,6.21-14.54,14.82-14.68,.71-.01,1.41-.02,2.12-.02h3.81s3,.01,3,.01v-72.16l-2.64-.32c-.29-.04-.55-.06-.8-.09-.39-.04-.72-.07-1.06-.13-7.23-1.34-11.98-5.63-13.04-11.78-1.14-6.63,1.13-11.75,6.94-15.64,1.02-.68,2.01-1.39,3-2.1,.54-.39,1.09-.78,1.64-1.16l14.02-9.81c23.62-16.53,48.04-33.62,72.03-50.48,.63-.44,3.77-2.8,3.88-5.9,.19-5.26,.16-10.57,.14-15.7,0-1.75-.02-3.49-.02-5.22v-1.97l-1.81-.78c-5.71-2.47-9.31-6.98-9.88-12.38-.61-5.72,2.21-11.41,7.54-15.22,11.19-7.99,22.18-16.58,32.82-24.9,5.61-4.39,11.42-8.92,17.17-13.31l4.5-3.44c8.23-6.29,16.75-12.8,25.32-18.87,1.56-1.11,3.23-1.67,4.96-1.67,3.1,0,5.48,1.76,5.5,1.77,3.8,2.86,7.63,5.7,11.45,8.54,5.47,4.06,11.13,8.26,16.63,12.46,15.25,11.64,31.91,24.44,52.43,40.31,4.71,3.64,7.22,8.57,6.89,13.53-.33,4.91-3.42,9.41-8.48,12.34-1.84,1.07-3.34,3.64-3.41,5.86-.22,6.62-.21,12.45,.02,17.8,.1,2.27,1.56,4.94,3.49,6.36,4.84,3.58,9.86,7.07,14.7,10.45,1.53,1.06,3.05,2.12,4.57,3.19l21.97,15.38c16.65,11.66,33.31,23.31,49.94,34.99,6.53,4.58,8.81,11.3,6.1,17.96-2.37,5.84-6.85,8.9-14.08,9.62l-2.7,.27v72.18h3c.55,0,1.08-.02,1.59-.05,.4-.02,.78-.04,1.15-.04s.68,.02,.92,.07c.89,.17,1.79,.33,2.69,.48,2.81,.49,5.46,.95,7.77,1.93,3.3,1.41,4.91,4.96,6.61,8.73l.02,.04v7.02c-3.16,7.84-8.77,11.19-18.65,11.19h-.48ZM17.73,288.28c-4.59,0-8,1.11-10.13,3.3-1.58,1.62-2.39,3.78-2.33,6.24,.07,2.77,1.41,9.2,12.33,9.2H359.51c4.56,0,7.96-1.12,10.11-3.32,1.59-1.63,2.41-3.8,2.35-6.27-.07-2.75-1.4-9.16-12.33-9.16H188.68s-170.96,0-170.96,0Zm275.86-5.44h30.19v-36.21h-30.19v36.21ZM110.63,193.02c1.31,0,2.67,.02,2.67,5.75,0,19.18,0,76.72,0,76.72v7.34h30.52v-21.17c-.01-13.32-.02-27.09,.04-40.63,.02-3.77,.3-6.99,.85-9.85,4.09-21.01,22.78-36.26,44.45-36.26,1.77,0,3.58,.1,5.38,.29,21.24,2.31,38.66,22.28,38.85,44.51,.09,10.32,.06,20.82,.04,30.98l-.02,9.03c0,4.54-2.02,4.54-2.78,4.54-.93,0-2.76-.03-2.78-4.7-.02-5.91-.02-11.83-.02-17.74,0-4.06,0-8.13,0-12.19,0-.99-.06-1.96-.11-2.89-.02-.42-.05-.85-.07-1.28l-.13-2.86h-35.88v60.19h71.73l.27-2.71c.03-.33,.07-.64,.11-.93,.08-.68,.17-1.38,.17-2.12v-1.55c.01-59.11,.02-120.23-.08-180.34,0-2.42-1.73-4.72-3.21-5.96-1.36-1.14-2.8-2.12-4.18-3.07-1.21-.82-2.35-1.6-3.4-2.45-1.17-.95-1.43-2.48-.61-3.65,.56-.8,1.23-1.2,1.99-1.2,.56,0,1.21,.21,1.86,.62,.44,.27,.91,.64,1.4,1.04,.25,.2,.5,.39,.75,.59,3.25,2.48,6.11,3.68,8.74,3.68,1.87,0,4.58-.63,6.84-3.66,2.05-2.74,4.23-8.29-4.15-14.73-24.61-18.93-49.22-37.85-73.83-56.78-2.56-1.97-4.8-3.28-7.41-3.28s-4.88,1.33-7.48,3.33c-10.45,8.04-20.91,16.08-31.37,24.12l-22.29,17.14-5.47,4.2c-5.51,4.23-11.2,8.6-16.76,12.96-4.26,3.35-5.13,8.97-2.03,13.08,1.77,2.34,4.4,3.68,7.23,3.68,1.98,0,3.99-.65,5.81-1.88,.9-.61,1.73-1.26,2.53-1.89,.3-.23,.6-.47,.9-.7l20.26-15.59c15.18-11.68,30.37-23.36,45.56-35.04,1.53-1.17,2.56-1.74,3.15-1.74,.56,0,1.49,.51,2.85,1.55,15.75,12.1,30.09,23.15,43.83,33.79,1.43,1.11,2.87,2.79,1.58,4.5-.73,.98-1.32,1.1-1.76,1.1-.83,0-1.95-.51-3.16-1.44-5.43-4.15-10.85-8.32-16.27-12.49-2.98-2.29-5.95-4.58-8.93-6.87-3.81-2.92-7.62-5.84-11.46-8.78l-6.73-5.15-13.66,10.5c-9.22,7.09-18.36,14.11-27.51,21.14-2.62,2.01-5.23,4.05-7.83,6.08-6.69,5.23-13.61,10.63-20.66,15.51-4.18,2.89-5.79,5.99-5.75,11.06,.16,20,.12,40.35,.09,60.02l-.02,11.43c0,2.9-.89,4.38-2.64,4.42-2.42,0-2.78-2.88-2.79-4.6-.01-2.43-.01-4.86,0-7.46v-8.82s-4.45,2.46-4.45,2.46c-.36,.2-.65,.35-.9,.49-.51,.27-.96,.5-1.41,.82l-8.43,5.89c-19.73,13.8-40.14,28.07-60.14,42.22-2.09,1.48-3.2,4.49-3.22,6.7-.11,18.9-.09,38.12-.08,56.7v8.07c0,.8,.08,1.54,.15,2.26,.03,.29,.06,.57,.08,.86l.22,2.77h17.51l.47-2.44c.03-.16,.06-.29,.08-.39,.07-.32,.16-.71,.16-1.19,0-4.86,0-9.71,0-14.56-.01-10.68-.03-21.72,.08-32.57,.08-8.39,3.94-14.58,11.46-18.41,2.95-1.5,6.08-2.26,9.31-2.26,9.66,0,19.9,7.25,20.31,19.39,.35,10.41,.29,21.04,.24,31.31-.02,4.62-.05,9.25-.04,13.87v7.27h18.59v-84.08c0-5.64,1.65-5.64,2.74-5.64h.04Zm38.98,89.78h35.94v-60.17h-35.94v60.17Zm-96.04-.06h30v-36.29h-30v36.29Zm255.44-71.71c.94,0,1.9,.06,2.86,.16,9.56,1.09,17.38,10.25,17.43,20.42,.05,10.29,.04,20.75,.03,30.87,0,4.42,0,20.2,0,20.2h18.71v-18.56c-.01-16.96-.02-34.5,.06-51.67,.02-3.47-1.24-5.83-4.21-7.89-15.54-10.79-31.3-21.83-46.54-32.5l-15.02-10.52c-1.69-1.18-3.39-2.36-5.18-3.6l-7.43-5.15v129.89h18.28v-17.87c0-10.34-.01-20.68,.02-31.02v-.32c0-2.31,.01-4.48,.47-6.45,2.23-9.72,10.29-15.99,20.54-15.99Zm-240.49,5.2c-3.12,0-6.12,1.05-8.94,3.11-6.84,5.01-6.73,12.29-6.1,18.71l.27,2.7h29.63l.27-2.71c.69-7.05,.74-14.96-7.48-19.66-2.5-1.43-5.07-2.15-7.65-2.15Zm240.06,.1c-3.16,0-6.19,.97-8.75,2.8-7.09,5.07-6.91,12.44-6.19,18.95l.3,2.67h29.07l.46-2.45c1.65-8.79-.68-15.72-6.58-19.52-2.49-1.61-5.37-2.46-8.32-2.46Zm-119.97-35.92c-19.61,0-36.84,14.81-38.4,33.02l-.28,3.26h77.37l-.29-3.26c-1.59-18.2-18.82-33.01-38.41-33.01h0Zm80.78-51.47c0,1.44,.02,2.79,.03,4.08,.03,2.83,.06,5.27-.08,7.71-.26,4.43,2.08,6.65,4.14,8.08,17.93,12.46,36.12,25.21,53.7,37.54l15.19,10.65c.82,.57,1.63,1.15,2.45,1.73,2.01,1.43,4.09,2.91,6.22,4.3,1.79,1.17,3.77,1.79,5.73,1.79h0c2.93,0,5.6-1.37,7.33-3.77,3.1-4.29,2.28-9.38-2.09-12.96-.55-.46-1.11-.84-1.64-1.21l-9.96-6.98c-10.17-7.12-20.33-14.25-30.5-21.37-10.08-7.06-50.53-35.35-50.53-35.35v5.76Zm-165.16-2.28c-.27,.06-.47,.09-.62,.11-.47,.07-1.11,.17-1.79,.64l-9.8,6.86c-24.99,17.49-50.83,35.57-76.21,53.4-4.81,3.38-5.93,8.68-2.8,13.2,1.72,2.48,4.39,3.9,7.33,3.9h0c2.16,0,4.37-.75,6.41-2.17,28.64-19.99,54.09-37.8,77.78-54.44,1.41-.99,3.1-2.93,3.21-5.12,.16-3.25,.13-6.42,.11-9.79,0-1.2-.02-2.42-.02-3.66v-3.68l-3.61,.74Z"/>
      <path d="M188.08,144.43c-5.28,0-10.57,0-15.85-.03-3.53-.01-4.39-.85-4.4-4.24l-.02-5.72c-.04-13.19-.09-26.84,.04-40.24,.11-11.94,9.22-21.32,20.72-21.36,11.49,0,20.61,9.34,20.83,21.27,.09,5.17,.07,10.44,.05,15.54-.01,2.41-.02,4.81-.02,7.22v6.56c.01,5.41,.02,10.83,0,16.24-.02,3.97-.76,4.73-4.67,4.74-5.55,.02-11.11,.03-16.66,.03Zm-14.47-5.88h29.89v-29.88h-29.89v29.88Zm15.01-60.13c-3.09,0-6.12,.9-8.53,2.53-7.68,5.2-6.95,13.13-6.42,18.92l.25,2.73h29.4l.25-2.72c.51-5.46,1.27-13.72-6.43-18.93-2.41-1.63-5.44-2.52-8.53-2.52Z"/>
    </g>
  </g>
</svg>