<?xml version="1.0" encoding="UTF-8"?>
<svg id="Camada_2" data-name="Camada 2" xmlns="http://www.w3.org/2000/svg" viewBox="0 0 375.27 374.95">
  <g id="Camada_1-2" data-name="Camada 1">
    <g id="add_user">
      <path d="M.03,374.95c0-11.61,0-23.21-.01-34.82-.02-29.55-.04-60.11,.08-90.17,.06-16.53,4.72-31.92,13.84-45.73,11.7-17.72,28.77-30.97,52.2-40.51,3.65-1.48,7.39-2.72,11.35-4.02,1.86-.61,3.73-1.23,5.62-1.89l6.73-2.33-5.49-4.54-.92-.75c-.53-.43-1.01-.82-1.47-1.22-27.38-23.91-37.02-52.75-28.66-85.73,7.75-30.59,26.59-50.72,56-59.85,3.34-1.03,6.79-1.71,10.44-2.44,1.58-.31,3.15-.62,4.72-.96h18.99c.6,.26,1.4,.58,2.38,.69,21.08,2.38,39.99,12.93,53.24,29.71,14.16,17.93,20.73,40.97,18.01,63.2-2.61,21.39-13.05,40.01-31.05,55.36-.12,.08-.58,.28-.89,.41-.4,.17-.8,.34-1.18,.53l-5.42,2.72,6.31,5.32,20.27,6.02,1.25-3.61,.28-.79c.22-.61,.43-1.2,.61-1.79,5.56-17.93,16.43-33.28,31.43-44.37,14.86-10.99,32.35-16.8,50.6-16.8,3.93,0,7.91,.28,11.82,.83,34.41,4.86,62.4,29.66,71.31,63.19,.79,2.98,1.39,5.99,2.02,9.18,.27,1.34,.53,2.68,.81,4.01v17.87c-.29,1.32-.56,2.65-.83,3.98-.62,3.03-1.27,6.17-2.06,9.15-9.68,36.52-42.75,62.58-80.41,63.37-.56,.01-1.12,.02-1.67,.02-3.73,0-7.47-.24-11.43-.49-2.18-.14-4.38-.28-6.62-.38l-4.18-.19v107.8H.03Zm197.6-122.94c4.51,1.87,6.95,5.89,6.96,11.66,.03,23.18,.02,46.36,.02,69.54v34.71s55.92,0,55.92,0l.5-3.43c.04-.26,.07-.47,.1-.64,.08-.45,.16-.91,.16-1.48v-22.63c0-23.25,.01-47.29,.07-70.93,.01-4.9-3.46-6.43-4.95-7.08-34.39-15.12-54.53-47.63-52.54-84.84,.32-6-3.56-7.65-5.9-8.09l-5.4-1.03c-8.31-1.59-16.9-3.24-25.41-4.68-.35-.06-.71-.09-1.08-.09-2.42,0-5.18,1.28-6.72,3.12-7.71,9.18-15.62,18.85-23.51,28.74-.75,.95-1.33,2.13-1.67,3.37-.36-1.35-1.04-2.61-2.08-3.86-3.02-3.63-6.01-7.29-9-10.94-4.6-5.62-9.35-11.42-14.13-17.07-1.68-1.99-4.77-3.37-7.52-3.37-.13,0-.27,0-.4,0-25.73,1.3-48.15,10.96-66.63,28.72-18.05,17.34-27.27,37.54-27.42,60.02-.17,26.25-.13,52.92-.1,78.73,.01,10.07,.03,20.14,.03,30.21,0,.94,.1,1.83,.18,2.62,.03,.31,.07,.63,.1,.94l.31,3.66H63.6s0-37.36,0-45c0-19.84,0-40.36,.08-60.54,.02-5.1,2.64-8.87,7.06-10.52v116.02h126.88v-115.84Zm92.03-148.51c-43.58,0-79.08,35.39-79.14,78.89-.06,43.61,35.34,79.15,78.91,79.23h.15c21.14,0,40.97-8.21,55.84-23.11s23.06-34.78,23.06-55.96c0-43.52-35.3-78.97-78.7-79.04h-.13ZM134.46,6.89c-42.42,0-77.06,34.31-77.22,76.48-.16,41.42,34.42,76.62,75.51,76.86h.49c43.26,0,77.34-33.6,77.58-76.5,.23-42.09-33.78-76.55-75.82-76.83h-.53Zm-3.14,335.6c-7.39-6.98-15.03-14.19-22.43-21.39-.05-.28-.07-.71-.02-.96,8.93-41.82,17.19-80.05,25.24-116.87,3.85,18,7.72,36,11.6,53.99,4.45,20.65,9.05,42.01,13.52,63.02,.02,.27-.19,1-.38,1.26-5.04,5.32-10.31,10.68-15.4,15.86-2.59,2.64-5.18,5.27-7.76,7.92-.22,.22-.43,.45-.64,.68l-3.72-3.51Z"/>
      <polygon points="279.45 230.51 279.45 193.28 241.86 193.28 241.86 172.24 279.22 172.24 279.22 134.8 300.11 134.8 300.11 171.96 337.51 171.96 337.51 193.04 300.26 193.04 300.26 230.51 279.45 230.51"/>
    </g>
  </g>
</svg>