<?xml version="1.0" encoding="UTF-8"?>
<svg id="Camada_2" data-name="Camada 2" xmlns="http://www.w3.org/2000/svg" viewBox="0 0 266.09 266.15">
  <g id="Camada_1-2" data-name="Camada 1">
    <g id="balance_sheet">
      <path d="M266.09,256.79c-1.25,3.78-2.99,7.22-7.05,8.63-1.43,.5-3.04,.69-4.57,.7-79.8,.03-159.6,.03-239.39,.03-8.56,0-14.54-5.67-15.02-14.24-.05-.86-.02-1.73-.02-2.6,0-64.45,0-128.89,0-193.34,0-1.2,.02-2.44,.27-3.6,.41-1.92,1.73-2.94,3.71-2.97,2-.02,3.32,1,3.78,2.89,.28,1.15,.28,2.4,.28,3.6,.01,64.62,0,129.24,.03,193.86,0,1.45,0,2.99,.43,4.35,.81,2.55,2.87,3.8,5.45,4.19,.77,.11,1.56,.07,2.34,.07,52.51,0,105.01,0,157.52,0h2.67c-.04-5.36-1.3-10.73,2.06-15.23-3.27-6.61-3.18-13.04-.06-19.75-3.09-4.51-2.6-9.82-1.73-15.03,.78-4.68,5.31-7.95,10.46-8.09,2.59-.07,5.18-.01,8.38-.01-.95-.83-1.46-1.31-2-1.75-22.61-18.16-22.82-51.35-.48-69.84,.93-.77,1.88-2.18,1.88-3.3,.11-23.91,.08-47.82,.07-71.72,0-.43-.07-.86-.15-1.68-.92,0-1.83,0-2.74,0-8.75,0-17.5,.01-26.25,0-8.64-.02-14.74-5.95-14.84-14.61-.11-8.83-.03-17.67-.03-26.51,0-.93,0-1.85,0-3.04h-3.09c-43.84,0-87.68,0-131.52,0-6.23,0-8.37,2.16-8.37,8.45,0,6.32,.02,12.65-.01,18.97-.02,3.09-1.42,4.77-3.87,4.85-2.28,.07-4.05-1.29-4.09-3.77C.02,28.51-.16,20.7,.28,12.93,.65,6.62,4.48,2.52,10.48,.51c.3-.1,.56-.34,.84-.51C59.67,0,108.02,0,156.38,0c.96,.86,1.96,1.68,2.87,2.59,13.79,13.77,27.54,27.57,41.37,41.29,1.81,1.79,2.54,3.67,2.53,6.19-.07,23.12-.04,46.23-.04,69.35,0,.92,0,1.85,0,3.1,10.17-4.14,20.24-4.93,30.49-1.92,10.37,3.04,19.02,8.86,24.49,18.1,13.82,23.36,8.73,43.75-11.02,61.54,2.67,0,5.17-.04,7.67,.01,3.97,.09,7.28,1.58,9.39,5.04,.87,1.44,1.32,3.14,1.97,4.71v7.8c-.78,1.97-1.55,3.94-2.29,5.81,.76,1.87,1.53,3.75,2.29,5.63v7.8c-.77,1.98-1.53,3.97-2.3,5.97,.73,1.74,1.52,3.6,2.3,5.47v8.32Zm-44.85-130.02c-20.27-.03-36.77,16.33-36.79,36.5-.02,20.21,16.45,36.82,36.54,36.86,20.15,.04,36.76-16.49,36.78-36.61,.03-20.27-16.32-36.72-36.54-36.75Zm-.14,112.23c9.87,0,19.75,0,29.62,0q7.18,0,7.14-7.1c-.02-3.82-.49-4.3-4.39-4.3-20.79,0-41.57,0-62.36,0q-6.77,0-6.75,6.87c.01,3.84,.67,4.52,4.51,4.52,10.74,0,21.48,0,32.22,0Zm0,7.89c-9.96,0-19.93,0-29.89,0q-6.87,0-6.85,6.81c.01,4.04,.62,4.66,4.65,4.66,20.45,0,40.89,0,61.34,0q7.6,0,7.51-7.53c-.04-3.21-.76-3.93-4.01-3.93-10.92,0-21.83,0-32.75,0Zm0-38.58c-10.22,0-20.43,0-30.65,0q-6.09,0-6.09,6.21c0,4.82,.22,5.04,4.94,5.05,20.52,0,41.04,0,61.56,0q7.06,0,7-7.14c-.03-3.59-.51-4.1-4.03-4.11-10.91-.01-21.82,0-32.73,0ZM188.19,43.95c-9.73-9.72-19.59-19.56-29.22-29.18,0,7.33-.06,15.21,.03,23.09,.04,3.26,2.32,5.92,5.67,6.01,8.02,.23,16.04,.07,23.52,.07Z"/>
      <path d="M105.47,177.67v3.45c0,18.1,0,36.21,0,54.31,0,.87,.04,1.74-.05,2.6-.23,2.27-1.7,3.47-3.8,3.52-2.12,.04-3.56-1.22-3.94-3.4-.13-.76-.05-1.56-.05-2.33,0-18.36,0-36.72,0-55.09v-3.05h-3.31c-18.11,0-36.21,0-54.32,0-5.05,0-6.22-1.19-6.22-6.32,0-5.37-.03-10.74,0-16.11,.02-3.68,1.38-5.03,5-5.04,41.84,0,83.69,0,125.53,0,3.7,0,5.01,1.3,5.02,4.97,.02,5.63,0,11.26,0,16.89,0,4.23-1.35,5.61-5.57,5.61-18.37,.01-36.73,0-55.1,0-.94,0-1.89,0-3.21,0Zm.17-8.22h55.67v-11.25h-55.67v11.25Zm-63.65-.05h55.47v-11.25H41.99v11.25Z"/>
      <path d="M133.97,73.4c0,11.86,0,23.72,0,35.57,0,4.17-1.23,5.38-5.41,5.38-6.41,0-12.81,.01-19.22,0-3.31,0-4.77-1.36-4.77-4.72-.04-24.15-.03-48.3,0-72.45,0-3.48,1.5-4.91,4.9-4.92,6.49-.02,12.99-.02,19.48,0,3.57,0,5.01,1.44,5.02,5.05,.02,12.03,0,24.06,0,36.09Zm-21.26,33.07h13.08V40.37h-13.08V106.47Z"/>
      <path d="M63.23,81.09c0,9.27,0,18.54,0,27.81,0,4.2-1.24,5.46-5.36,5.46-6.41,0-12.82,.01-19.23,0-3.33,0-4.83-1.37-4.83-4.67-.04-19.23-.03-38.46,0-57.69,0-3.29,1.51-4.67,4.83-4.68,6.58-.02,13.17-.02,19.75,0,3.41,0,4.83,1.43,4.84,4.94,.03,9.61,0,19.23,.01,28.85Zm-8.25,25.35V55.31h-12.98v51.13h12.98Z"/>
      <path d="M101.26,131.06c-23.65,0-47.3,0-70.96,0-.87,0-1.73,.02-2.6-.02-2.61-.14-4.18-1.7-4.1-4.03,.08-2.18,1.69-3.68,4.11-3.79,.52-.02,1.04,0,1.56,0,48.17,0,96.34,0,144.51,0,.69,0,1.39-.04,2.08,.02,2.14,.19,3.78,1.91,3.78,3.91,0,2.02-1.59,3.67-3.79,3.86-.95,.08-1.9,.05-2.86,.05-23.91,0-47.82,0-71.74,0Z"/>
      <path d="M98.6,88.63c0,6.76,0,13.51,0,20.27,0,4.23-1.22,5.46-5.35,5.46-6.41,0-12.82,.01-19.23,0-3.33,0-4.83-1.35-4.84-4.67-.05-14.21-.05-28.41,0-42.62,.01-3.31,1.51-4.68,4.83-4.68,6.58-.02,13.17-.02,19.75,0,3.43,0,4.82,1.4,4.83,4.93,.03,7.1,0,14.21,0,21.31Zm-8.23,17.82v-36.06h-12.99v36.06h12.99Z"/>
      <path d="M169.34,95.21c0,4.76,.02,9.51,0,14.27-.02,3.5-1.39,4.86-4.86,4.87-6.58,.01-13.15,.01-19.73,0-3.32,0-4.76-1.33-4.78-4.69-.06-9.69-.06-19.37,0-29.06,.02-3.29,1.55-4.66,4.87-4.67,6.58-.02,13.15-.02,19.73,0,3.26,.01,4.74,1.48,4.77,4.75,.04,4.84,0,9.69,.01,14.53Zm-21.16-11.27v22.44h13v-22.44h-13Z"/>
      <path d="M62.84,197.04c-5.45,0-10.9,.02-16.36,0-2.9-.02-4.48-1.42-4.49-3.85-.01-2.42,1.62-3.94,4.43-3.95,11.08-.02,22.15-.03,33.23,0,2.72,0,4.47,1.67,4.42,4.01-.05,2.24-1.74,3.77-4.35,3.78-5.62,.04-11.25,.01-16.88,.01Z"/>
      <path d="M140.26,197.04c-5.45,0-10.9,.01-16.36,0-3.01-.01-4.83-1.47-4.86-3.83-.04-2.37,1.83-3.97,4.75-3.97,10.9-.02,21.81-.02,32.71,0,3,0,4.68,1.49,4.64,3.99-.04,2.43-1.62,3.79-4.53,3.81-5.45,.03-10.9,0-16.36,0Z"/>
      <path d="M63.05,216.71c-5.37,0-10.73,.02-16.1,0-3.21-.02-4.96-1.46-4.96-4.01,0-2.57,1.65-3.95,4.98-3.96,10.73-.03,21.47-.03,32.2,0,3.06,.01,4.83,1.48,4.89,3.85,.07,2.5-1.79,4.1-4.91,4.12-5.37,.03-10.73,0-16.1,0Z"/>
      <path d="M63.06,236.17c-5.37,0-10.73,.03-16.1-.01-3.36-.03-4.98-1.38-4.96-3.97,.02-2.56,1.74-3.95,4.99-3.95,10.65-.01,21.29-.01,31.94,0,3.24,0,5.06,1.39,5.15,3.85,.09,2.53-1.79,4.05-5.17,4.07-5.28,.03-10.56,0-15.84,0Z"/>
      <path d="M139.99,228.24c5.45,0,10.9-.02,16.36,0,3.04,.01,4.76,1.44,4.8,3.88,.05,2.53-1.54,4.01-4.64,4.02-10.9,.05-21.81,.04-32.71,0-2.96-.01-4.8-1.66-4.77-3.99,.04-2.35,1.92-3.91,4.86-3.92,5.37-.02,10.73,0,16.1,0Z"/>
      <path d="M140.08,216.71c-5.45,0-10.91,.05-16.36-.02-3.64-.04-5.88-3.15-4.08-5.79,.71-1.04,2.34-2.04,3.56-2.06,11.25-.16,22.5-.14,33.75-.08,2.73,.02,4.2,1.57,4.19,3.93,0,2.39-1.66,3.96-4.45,3.99-5.54,.06-11.08,.02-16.62,.02Z"/>
      <path d="M220.49,135.65c20.65,.04,34.29,20.88,26.12,38.82-.91,2.01-2.23,3.32-4.58,2.96-1.97-.3-3.16-1.64-3.26-3.51-.06-1.21,.53-2.5,.97-3.7,4.86-13.33-5.42-27.51-19.58-26.69-8.22,.48-14.3,4.73-17.37,12.39-3.14,7.84-1.74,15.23,4.19,21.33,5.78,5.95,12.87,7.37,20.75,4.88,.74-.23,1.44-.58,2.17-.86,2.65-1,4.66-.3,5.63,1.96,.89,2.09,.05,4.13-2.4,5.26-7.72,3.58-15.52,3.75-23.32,.28-11.68-5.2-17.74-17.18-16.29-28.38,1.71-13.18,11.14-22.69,23.79-24.58,1.28-.19,2.59-.14,3.19-.16Z"/>
    </g>
  </g>
</svg>