<?xml version="1.0" encoding="UTF-8"?>
<svg id="Camada_1" data-name="Camada 1" xmlns="http://www.w3.org/2000/svg" viewBox="0 0 383.16 368.29">
  <defs>
    <style>
      .cls-1 {
        fill: #fff;
      }
    </style>
  </defs>
  <path d="M0,279.14c.75-5.14,1.62-10.26,2.22-15.42,2.5-21.27,4.94-42.54,7.36-63.82,2.35-20.66,4.65-41.33,6.98-61.99,.35-3.09,.7-6.19,1.2-9.26,.93-5.73,3.15-7.6,9.07-7.61,11.6-.04,23.2-.01,34.8-.01,1.36,0,2.71,0,4.67,0,0-4.47-.02-8.66,0-12.86,.05-7.34,2.58-9.88,9.94-9.89,21.45-.02,42.91-.02,64.36,0,7.01,0,9.76,2.78,9.78,9.7,.01,4.21,0,8.41,0,12.81h116.74v-37.79c-1.54,0-2.88,0-4.22,0-15.47,0-30.93,.02-46.4,0-9.79-.01-16.73-6.31-16.88-16.12-.27-16.83-.26-33.68,0-50.51C199.79,6.46,206.78,.04,216.8,.03c38.79-.04,77.59-.04,116.38,0,10.34,.01,17.15,6.76,17.2,17.04,.08,16.34,.08,32.68,0,49.02-.05,10.37-6.78,16.91-17.2,16.92-15.34,.02-30.68,0-46.03,0-1.34,0-2.69,0-4.25,0v38.02c1.65,0,3.11,0,4.57,0,22.7,0,45.4,0,68.11,0,7.04,0,9.24,1.68,10.09,8.64,1.99,16.19,3.72,32.41,5.58,48.61,1.87,16.33,3.78,32.65,5.66,48.98,1.86,16.2,4.61,32.37,5.35,48.63,1.08,23.89,.89,47.85,.9,71.78,0,10.85-9.89,19.9-21.44,20.42-1.49,.07-2.99,.03-4.49,.03-109.39,0-218.79-.13-328.18,.16-13.76,.04-24.09-3.56-29.04-17.29,0-23.95,0-47.91,0-71.86ZM351.18,136.38H150.58v61.91c2.01,.24,3.89,.32,5.69,.72,3.44,.78,5.36,3.13,5.66,6.57,.31,3.44-1.18,6.13-4.41,7.48-1.44,.6-3.14,.8-4.73,.8-29.68,.05-59.37,.03-89.05,.03-.87,0-1.76,.02-2.61-.14-3.9-.71-6.48-3.74-6.48-7.52,0-3.86,2.45-6.71,6.5-7.41,1.57-.27,3.17-.35,4.83-.53v-62.02H32.08c-5.35,46.64-10.7,93.17-16.05,139.82H367.22c-5.36-46.7-10.7-93.16-16.04-139.72ZM14.97,291.81v4.46c0,15.47,0,30.93,0,46.4,0,8.17,2,10.2,10.11,10.2,28.44,0,56.88,0,85.32,0,82.57,0,165.15,0,247.72,0,8.16,0,10.17-2.03,10.17-10.15,0-15.59,0-31.18,0-46.77,0-1.33,0-2.66,0-4.14H14.97ZM335.37,15.58h-120.61v4c0,14.71,.11,29.42-.08,44.13-.04,3.47,.95,4.38,4.39,4.37,37.28-.12,74.55-.08,111.83-.08,.5,0,1-.05,1.5,0,2.3,.24,3.06-.81,3-3.05-.12-4.73-.03-9.47-.03-14.21,0-11.58,0-23.16,0-35.17ZM81.71,113.74v84.61h53.21V113.74h-53.21Z"/>
  <path class="cls-1" d="M335.37,15.58c0,12.01,0,23.59,0,35.17,0,4.74-.08,9.48,.03,14.21,.06,2.24-.71,3.3-3,3.05-.49-.05-1,0-1.5,0-37.28,0-74.55-.05-111.83,.08-3.44,.01-4.44-.9-4.39-4.37,.19-14.71,.08-29.42,.08-44.13v-4h120.61Z"/>
  <path class="cls-1" d="M81.71,113.74h53.21v84.61h-53.21V113.74Z"/>
  <path d="M196.4,238.59c3.87,0,7.74-.12,11.6,.03,4.32,.17,7.4,3.28,7.49,7.28,.09,4.03-3.23,7.6-7.58,7.68-7.6,.14-15.21,.14-22.82,0-4.4-.08-7.65-3.49-7.63-7.59,.02-4.23,3.06-7.25,7.72-7.41,3.74-.13,7.48-.03,11.22-.03,0,0,0,.01,0,.02Z"/>
  <path d="M256.9,253.65c-3.62,0-7.23,.06-10.84-.02-4.79-.11-7.99-3.17-8.01-7.52-.03-4.46,2.96-7.44,7.91-7.52,7.35-.11,14.71-.11,22.06,0,4.72,.07,8.08,3.42,7.97,7.6-.11,4.2-3.53,7.3-8.24,7.45-.12,0-.25,0-.37,0-3.49,0-6.98,0-10.47,0Z"/>
  <path d="M317.68,238.58c3.74,0,7.48-.11,11.21,.03,4.41,.17,7.38,3.14,7.48,7.23,.11,4.22-2.97,7.66-7.41,7.75-7.72,.16-15.45,.16-23.17,0-4.29-.09-7.2-3.35-7.22-7.48-.02-4.23,2.76-7.27,7.15-7.46,3.98-.17,7.97-.04,11.96-.04,0,0,0-.01,0-.02Z"/>
  <path d="M202.96,213.9c-3.12,0-6.23,.07-9.35-.01-4.87-.13-8.14-3.01-8.39-7.28-.24-4.18,2.91-7.72,7.7-7.9,6.72-.25,13.46-.25,20.18,0,4.66,.17,7.68,3.46,7.66,7.57-.02,4.19-3.38,7.43-8.08,7.6-3.24,.12-6.48,.02-9.72,.02Z"/>
  <path d="M256.71,213.9c-2.99,0-5.98,.05-8.97-.01-5.14-.11-8.41-3.03-8.5-7.5-.09-4.32,2.93-7.55,7.85-7.72,6.59-.23,13.21-.23,19.8,0,4.88,.18,7.91,3.5,7.78,7.8-.13,4.21-3.47,7.21-8.24,7.42-.12,0-.25,0-.37,0-3.11,0-6.23,0-9.34,0Z"/>
  <path d="M310.89,213.9c-3.11,0-6.23,.07-9.34-.01-4.93-.12-8.11-2.96-8.29-7.27-.18-4.43,2.68-7.72,7.58-7.91,6.71-.26,13.45-.26,20.16,0,4.85,.19,7.78,3.56,7.58,7.93-.19,4.1-3.38,7.07-7.98,7.23-3.23,.12-6.47,.02-9.71,.02Z"/>
  <path d="M208.67,158.78c2.74,0,5.48-.08,8.22,.02,4.81,.16,8.16,3.16,8.34,7.36,.18,4.19-2.99,7.68-7.77,7.88-5.97,.25-11.96,.25-17.93,0-4.77-.2-7.98-3.7-7.8-7.86,.18-4.19,3.53-7.21,8.34-7.37,2.86-.1,5.73-.02,8.6-.02Z"/>
  <path d="M256.89,158.79c2.99,0,5.98-.13,8.96,.03,4.55,.25,7.74,3.39,7.84,7.46,.1,4.02-3,7.5-7.55,7.71-6.09,.28-12.21,.29-18.29,.01-4.81-.21-7.76-3.64-7.56-7.99,.19-4.09,3.35-7.02,8-7.22,2.86-.12,5.73-.02,8.59-.02Z"/>
  <path d="M305.62,158.78c2.86,0,5.73-.11,8.58,.03,4.64,.23,7.68,3.21,7.78,7.39,.1,4.28-2.65,7.55-7.32,7.78-6.2,.3-12.44,.3-18.64,0-4.63-.23-7.37-3.58-7.22-7.86,.14-4.17,3.21-7.02,7.87-7.32,.25-.02,.5,0,.75,0,2.74,0,5.47,0,8.21,0Z"/>
  <path d="M191.62,314.6c14.46,0,28.93-.01,43.39,.02,1.61,0,3.26,.06,4.82,.43,3.43,.81,5.33,3.2,5.59,6.63,.28,3.64-1.5,6.28-4.91,7.54-1.47,.54-3.17,.68-4.76,.68-29.43,.04-58.85,.04-88.28,0-1.59,0-3.29-.14-4.76-.68-3.4-1.26-5.18-3.9-4.9-7.54,.26-3.44,2.18-5.81,5.6-6.63,1.55-.37,3.21-.42,4.81-.43,14.46-.03,28.93-.02,43.39-.02Z"/>
</svg>