<?xml version="1.0" encoding="UTF-8"?>
<svg id="Camada_2" data-name="Camada 2" xmlns="http://www.w3.org/2000/svg" viewBox="0 0 383.36 371.32">
  <g id="Camada_1-2" data-name="Camada 1">
    <g id="suplier">
      <path d="M383.36,333.81c-1.87,1.39-3.62,2.98-5.62,4.14-16.25,9.45-32.6,18.74-48.8,28.27-3.43,2.02-6.17,2.05-9.64,0-15.11-8.94-30.42-17.55-45.54-26.48-2.66-1.57-4.53-1.41-7.09,.1-15.03,8.83-30.21,17.4-45.23,26.25-3.52,2.07-6.37,2.19-9.97,.07-16.52-9.74-33.16-19.28-49.83-28.76-3.18-1.81-4.57-4.08-4.54-7.79,.12-19.46,.13-38.92,0-58.38-.03-3.74,1.43-5.94,4.6-7.73,15.48-8.8,30.85-17.8,46.34-26.59,2.28-1.29,3.04-2.73,3.03-5.29-.11-17.84,.01-35.68-.11-53.51-.03-3.68,1.27-5.98,4.49-7.81,16.89-9.6,33.71-19.32,50.48-29.12,3.06-1.79,5.65-1.77,8.69,0,16.78,9.79,33.59,19.52,50.48,29.12,3.21,1.83,4.49,4.1,4.46,7.81-.15,17.84-.01,35.68-.13,53.51-.02,2.59,.82,3.97,3.06,5.25,15.36,8.75,30.66,17.62,45.93,26.53,1.78,1.04,3.3,2.51,4.94,3.78v66.62ZM222.11,185.84c-.16,.68-.31,1.01-.31,1.34-.02,15.21-.09,30.42,.1,45.62,.02,1.3,1.43,3.06,2.67,3.79,14.26,8.39,28.64,16.59,42.93,24.94,1.94,1.14,3.39,1.29,5.42,.1,14.28-8.36,28.61-16.64,43.01-24.8,2.17-1.23,2.84-2.62,2.82-5.03-.11-14.08-.05-28.17-.06-42.26,0-1.07-.12-2.15-.22-3.71-1.56,.82-2.74,1.4-3.88,2.05-13.04,7.52-26.13,14.95-39.08,22.63-3.62,2.15-6.56,2.33-10.31,.09-13.14-7.86-26.47-15.38-39.74-23.01-1.04-.6-2.12-1.11-3.33-1.74Zm-54.18,92.95c0,16.42-.06,32.01,.11,47.59,.01,1.19,1.41,2.78,2.58,3.46,14.39,8.44,28.89,16.71,43.29,25.12,1.84,1.07,3.16,1.1,5.02,0,14.29-8.37,28.64-16.65,43.04-24.84,2.1-1.19,2.97-2.45,2.94-4.94-.13-14.22-.06-28.44-.08-42.66,0-1.05-.16-2.1-.27-3.45-1.38,.74-2.37,1.23-3.33,1.78-13.15,7.59-26.36,15.11-39.42,22.86-3.72,2.21-6.79,2.45-10.65,.1-11.07-6.72-22.38-13.04-33.6-19.52-2.99-1.72-5.99-3.42-9.65-5.51Zm107.7,.08c0,16.36-.06,31.94,.11,47.52,.01,1.18,1.41,2.77,2.58,3.46,14.39,8.43,28.88,16.69,43.29,25.09,1.81,1.06,3.13,1.16,5.02,.06,14.29-8.37,28.63-16.64,43.03-24.82,2.13-1.21,2.92-2.55,2.9-5-.11-14.22-.05-28.43-.07-42.65,0-1.03-.2-2.06-.34-3.41-1.59,.88-2.78,1.51-3.95,2.18-13.15,7.59-26.35,15.1-39.43,22.82-3.3,1.95-6.02,1.91-9.32-.04-12.86-7.61-25.84-15-38.79-22.46-1.47-.85-2.99-1.63-5.05-2.75Zm37.63-102.78c-14.25-8.24-27.9-16.18-41.64-23.96-.86-.49-2.63-.07-3.64,.51-12.87,7.33-25.68,14.77-38.49,22.2-.6,.35-1.12,.85-1.86,1.41,13.8,7.96,27.37,15.83,41,23.57,.86,.49,2.49,.51,3.34,.02,13.63-7.75,27.19-15.62,41.3-23.76Zm53.49,93.23c-1.11-.71-1.9-1.26-2.72-1.73-12.5-7.23-24.98-14.51-37.57-21.6-1.18-.67-3.39-.67-4.57-.01-12.92,7.26-25.73,14.7-38.56,22.11-.57,.33-1.06,.78-1.91,1.42,14.11,8.13,27.77,16.06,41.53,23.82,.84,.47,2.58-.01,3.59-.59,12.66-7.22,25.26-14.53,37.87-21.83,.71-.41,1.37-.93,2.33-1.6Zm-107.33,.05c-14.34-8.27-28-16.19-41.75-23.96-.84-.48-2.58,0-3.61,.58-6.85,3.82-13.63,7.77-20.42,11.69-6.54,3.78-13.06,7.57-19.58,11.35,.25,.48,.3,.8,.48,.9,13.46,7.81,26.92,15.62,40.43,23.33,.76,.43,2.21,.43,2.97-.01,13.62-7.76,27.18-15.62,41.47-23.88Z"/>
      <path d="M36.13,270.13c-8.58,3.97-16.64,4.35-24.55,.04-7.29-3.96-11.32-10.28-11.38-18.48-.19-26.32-.34-52.64,.03-78.96,.34-24.25,17.29-45.6,42.36-53.54,6.8-2.15,14.11-3.71,21.2-3.76,47.65-.33,95.3-.27,142.95-.11,10.11,.03,18.13,4.6,22.45,14.04,4.24,9.26,3.22,18.27-3.16,26.32-4.59,5.79-10.91,8.74-18.22,8.87-13.84,.25-27.69,.13-41.53,.17-12.09,.03-19,6.87-19.01,19.01-.03,53.76-.04,107.53,.01,161.29,0,9.12-2.23,17.14-10.48,22.18-8.55,5.22-17.52,5.48-26.3,.68-8.22-4.49-11.61-11.88-11.59-21.11,.05-26.57,.01-53.14,0-79.71,0-4.75-1.85-7.4-5.53-8.1-5.2-.98-8.76,1.92-8.78,7.31-.05,15.59-.03,31.19-.04,46.78,0,11.48,.09,22.95-.04,34.43-.12,10.57-5.62,18.49-14.95,22.02-9.63,3.65-20.8,1.19-27.54-6.08-4.41-4.76-5.91-10.54-5.91-16.85,0-23.95,0-47.9,0-71.85,0-1.37,0-2.73,0-4.61Zm11.06-97.11c0,1.67,0,3.13,0,4.6,0,55.51,0,111.03,0,166.54,0,1.5-.03,3,.04,4.49,.25,5.08,3.15,8.96,7.95,10.68,9.86,3.55,18.31-2.37,18.32-12.88,.03-24.08,.03-48.15,.04-72.23,0-3.24-.13-6.5,.1-9.73,.67-9.65,8.05-16.49,17.79-16.66,9.73-.16,17.36,6.44,18.1,16.17,.45,5.96,.26,11.97,.28,17.95,.07,21.71,.07,43.41,.18,65.12,.04,7.3,3.95,12.03,10.38,12.93,9.72,1.35,15.97-4.02,15.98-13.86,.02-54.27,0-108.53,.01-162.8,0-17.52,11.7-29.26,29.26-29.36,10.73-.06,21.46,.04,32.19-.04,3.86-.03,7.75-.05,11.56-.59,6.44-.91,10.81-5.92,11.42-12.49,.56-5.99-3.27-11.85-9.37-13.68-2.57-.77-5.39-.98-8.09-.98-45.16-.06-90.32-.14-135.48,.07-6.53,.03-13.23,.88-19.53,2.54-22.64,5.99-36.59,23.17-37.14,46.57-.57,24.69-.17,49.4-.18,74.1,0,.87,.12,1.74,.22,2.61,.64,5.27,4.39,9.12,9.63,9.93,9.33,1.43,15.25-3.57,15.27-13.04,.04-23.83,.01-47.66,.01-71.48,0-1.46,0-2.92,0-4.75,2.9,0,5.37-.02,7.83,.01,.96,.01,1.92,.14,3.23,.24Z"/>
      <path d="M91.83,0c29.23,.02,53.27,24.06,53.32,53.31,.04,29.33-24.26,53.6-53.58,53.51-29.38-.09-53.31-24.27-53.24-53.78C38.4,23.83,62.46-.02,91.83,0ZM49.38,53.48c.04,23.57,18.98,42.37,42.61,42.32,23.2-.05,42.15-19.18,42.13-42.53-.02-23.34-18.9-42.18-42.33-42.23-23.67-.05-42.45,18.74-42.41,42.43Z"/>
    </g>
  </g>
</svg>