<?xml version="1.0" encoding="UTF-8"?>
<svg id="Camada_2" data-name="Camada 2" xmlns="http://www.w3.org/2000/svg" viewBox="0 0 383.31 342.46">
  <g id="Camada_1-2" data-name="Camada 1">
    <g id="home">
      <path d="M0,140.52c2.15-2.35,3.99-5.13,6.51-6.98C65.48,90.15,124.53,46.86,183.56,3.56c6.45-4.73,9.72-4.74,16.14-.03,59.23,43.44,118.45,86.89,177.7,130.3,4.15,3.04,6.88,6.65,5.58,12.03-1.75,7.25-9.93,9.76-16.44,5.04-11.41-8.28-22.73-16.68-34.09-25.02-46.05-33.8-92.11-67.59-138.17-101.39-.8-.59-1.63-1.13-2.69-1.87-9.52,6.98-19.06,13.97-28.59,20.96C114.84,78.91,66.68,114.24,18.51,149.55c-8.15,5.97-12.91,5.17-18.51-3.03,0-2,0-4,0-6Z"/>
      <path d="M62.17,322.09h79.47c0-1.67,0-3.13,0-4.59,0-27.12-.09-54.24,.03-81.36,.1-23.15,15.08-42.61,37.14-48.65,29.11-7.98,59.24,12.59,62.24,42.53,.34,3.35,.53,6.73,.53,10.09,.04,25.75,.02,51.49,.02,77.24,0,1.47,0,2.95,0,4.69h79.47v-4.52c0-50.62,.01-101.24-.03-151.86,0-3.64,.46-6.93,3.38-9.49,5.41-4.75,13.97-2.49,16.06,4.4,.53,1.76,.67,3.69,.67,5.54,.03,54.62,.03,109.24,.03,163.85,0,.5,.01,1,0,1.5-.23,6.93-4.09,10.94-11.02,10.95-32.56,.06-65.11,.06-97.67,0-7.27-.01-10.96-3.87-10.97-11.19-.02-31.25,.02-62.49-.02-93.74-.02-14.63-8.3-26.36-21.15-30.22-19.69-5.91-38.49,8.45-38.57,29.69-.12,30.5-.03,60.99-.03,91.49,0,1.25,.02,2.5-.01,3.75-.16,6.13-3.89,9.94-10.06,10.2-2.49,.11-4.99,.04-7.48,.04-29.69,0-59.38,0-89.06,0-9.58,0-13.05-3.48-13.05-13.07,0-54.49,0-108.99,0-163.48,0-6.93,2.79-10.93,8.29-12.02,5.85-1.17,11.37,3.05,11.76,9.02,.1,1.49,.05,3,.05,4.5,0,49.99,0,99.99,0,149.98,0,1.47,0,2.95,0,4.73Z"/>
    </g>
  </g>
</svg>