<?xml version="1.0" encoding="UTF-8"?>
<svg id="Camada_2" data-name="Camada 2" xmlns="http://www.w3.org/2000/svg" viewBox="0 0 339.55 357.52">
  <defs>
    <style>
      .cls-1 {
        fill: #1d1d1b;
      }
    </style>
  </defs>
  <g id="Camada_1-2" data-name="Camada 1">
    <g id="new_register">
      <path d="M123.25,304.51c-1.69,0-3.05,0-4.42,0-29.93,0-59.87,0-89.8,0C12.52,304.5,0,292.32,0,275.83,.04,209.35,.17,142.87,.37,76.39c.05-17.3,11.07-28.01,28.45-28.14,3.21-.02,6.42,0,9.99,0,0-8.14,0-15.84,0-23.54C38.83,9.99,48.68,.03,63.38,.02c68.72-.03,137.45-.03,206.17,0,14.48,0,24.45,10.04,24.48,24.43,.02,7.73,0,15.45,0,23.81,3.73,0,7.29-.06,10.85,.01,13.85,.27,24,8.05,26.88,20.86,.65,2.88,.6,5.94,.61,8.92,.03,53.26,.04,106.52,0,159.78,0,6.63,.97,12.85,3.44,19.19,14.82,38.02-16.54,78.86-56.89,74.25-17.14-1.96-30.76-10.13-40.46-24.59-.65-.97-2.02-2.05-3.07-2.07-9.34-.16-18.68-.09-28.45-.09,.39,1.39,.64,2.44,.98,3.47,3.95,11.65,8,23.28,11.8,34.98,.78,2.39,1.91,3.13,4.25,2.97,2.36-.16,4.75-.15,7.1,.02,3.4,.25,5.8,2.72,5.83,5.7,.02,2.97-2.39,5.45-5.74,5.81-.99,.11-1.99,.05-2.99,.05-41.16,0-82.32,0-123.48,0-.25,0-.5,0-.75,0-5.08-.03-8.04-2.16-8.04-5.81,0-3.65,2.96-6.11,8.02-5.71,4.25,.34,6.03-1.11,7.27-5.18,3.33-10.93,7.22-21.7,10.88-32.53,.39-1.15,.74-2.32,1.19-3.77ZM282.54,59.9H50.34V240.35c1.05,.11,1.89,.26,2.74,.26,62.35,.01,124.7,.03,187.06-.07,1.5,0,3.33-.93,4.43-2.02,7.34-7.22,15.77-12.57,25.77-15.17,3.94-1.02,8.01-1.53,12.2-2.3V59.9Zm1.74,173.12c-24.04,.05-43.41,19.51-43.37,43.59,.03,23.76,19.8,43.48,43.67,43.57,24.11,.08,43.4-19.49,43.37-43.99-.03-24.2-19.27-43.21-43.66-43.16ZM38.69,59.7c-3.53,0-6.75,0-9.97,0-10.89,.01-16.91,5.99-16.91,16.82,0,53.24,0,106.48,0,159.71,0,1.33,0,2.66,0,4.14h26.88V59.7ZM320.71,234.95c.17-.89,.29-1.23,.29-1.58,0-53,.04-106-.03-158.99,0-6.64-4.41-12.56-10.95-13.88-5.12-1.03-10.5-.74-15.99-1.04,0,2.15,0,3.51,0,4.86,0,51.13,0,102.25,0,153.38,0,.75-.24,1.62,.06,2.22,.51,1.04,1.22,2.57,2.09,2.76,9.07,1.98,17.04,6.1,24.53,12.27Zm-160.35,47.95c5.89-.05,10.32-4.61,10.23-10.53-.09-5.7-4.58-10.07-10.33-10.05-5.89,.02-10.36,4.62-10.23,10.54,.13,5.76,4.59,10.1,10.33,10.05ZM136.28,23.78s0-.03,0-.04c-.99,0-1.99-.04-2.98,0-3.15,.15-5.13,1.73-5.48,4.92-.35,3.16,1.48,5.58,4.8,5.9,2.56,.25,5.24,.22,7.76-.24,2.81-.51,4.12-2.75,3.92-5.52-.21-2.77-1.87-4.55-4.67-5-1.09-.18-2.23-.03-3.35-.03Zm-57.62,11.05s0-.05,0-.08c.87,0,1.74,.06,2.6-.01,3.64-.32,5.73-2.38,5.71-5.57-.02-3.37-2.22-5.34-6.13-5.44-1.61-.04-3.23-.06-4.84,.02-3.23,.17-5.68,2.37-5.6,5.28,.09,3.09,1.77,5.09,4.92,5.58,1.1,.17,2.22,.15,3.33,.21Zm28.97-11.08h0c-.87-.01-1.74-.04-2.6,0-3.66,.15-5.79,2.09-5.86,5.33-.07,3.24,1.95,5.38,5.6,5.65,1.97,.15,3.98,.13,5.94-.09,3.16-.36,4.87-2.4,5.03-5.48,.15-2.91-2.29-5.17-5.5-5.39-.86-.06-1.74,0-2.6,0Z"/>
      <path d="M177.96,151.37c2.13,3.61,4.95,5.03,9.07,4.76,5.59-.35,11.22-.15,16.82-.06,4.18,.07,6.39,2.16,6.35,5.7-.04,3.46-2.42,5.63-6.45,5.68-5.48,.07-10.96,.02-15.07,.02-3.98,4.31-7.02,8.07-10.54,11.29-4.16,3.8-10.12,3.51-14.26-.34-2.18-2.03-4.11-4.34-5.43-5.75-4.04,1.49-7.23,3.37-10.58,3.74-5.34,.59-10.07-3.46-10.84-8.76-1.37-9.48-2.61-18.99-3.61-28.51-.6-5.79,4.36-11.72,10.05-11.15,11.33,1.14,22.56,3.17,33.84,4.81,1.34,.19,2.7,.33,4.05,.33,22.07,.02,44.13,.01,66.2,.02,1.12,0,2.26-.08,3.36,.07,3.13,.41,5.22,2.84,5.06,5.89-.17,3.21-1.93,5.03-5.12,5.37-1.23,.13-2.49,.12-3.73,.12-19.95,0-39.9,.05-59.84-.04-3.15-.01-5.88-.07-6.94,3.74-.31,1.1-1.48,1.95-2.4,3.1Zm-31.03,16.48c1.95-1.7,3.05-2.56,4.04-3.55,5.89-5.87,6.57-5.87,12.57,.08,1.94,1.93,3.79,3.97,5.89,5.72,.72,.6,2.46,1.01,3.03,.57,1.9-1.47,3.49-3.35,5.53-5.41-3.46-3.35-6.53-6.24-9.51-9.23-3.48-3.5-3.45-5.71-.06-9.19,1.52-1.55,3.03-3.12,4.54-4.68-.12-.37-.23-.73-.35-1.1-9.6-1.24-19.19-2.47-29.59-3.82,1.32,10.31,2.55,19.9,3.91,30.6Z"/>
      <path d="M202.82,189.35c15.09,0,30.17-.02,45.26,.03,1.59,0,3.65-.09,4.65,.8,1.49,1.34,3.04,3.51,3.04,5.34,0,1.63-1.8,3.58-3.29,4.78-.99,.79-2.85,.68-4.32,.68-30.3,.03-60.6,.02-90.89,.03-2.84,0-5.54-.25-7.09-3.11-2.3-4.23,.75-8.49,6.27-8.53,12.34-.08,24.69-.02,37.03-.03,3.12,0,6.23,0,9.35,0Z"/>
      <path d="M73.94,206.41c.04-11,8.7-19.56,19.79-19.54,10.9,.02,19.8,8.88,19.8,19.7,0,10.71-9.03,19.8-19.78,19.91-10.94,.11-19.84-8.91-19.8-20.07Z"/>
      <path d="M73.94,150.01c.07-10.89,9.05-19.75,19.86-19.59,10.83,.16,19.77,9.2,19.73,19.91-.05,10.81-8.97,19.66-19.86,19.68-11.13,.03-19.8-8.77-19.73-20.01Z"/>
      <path d="M93.41,113.72c-11.01-.08-19.52-8.75-19.48-19.84,.04-10.91,8.92-19.79,19.74-19.74,10.74,.05,19.79,9.1,19.84,19.83,.05,10.96-8.99,19.84-20.11,19.76Z"/>
      <path d="M202.35,88.28c-15.33,0-30.66,.02-45.99-.01-4.5,0-6.83-1.97-6.82-5.59,0-3.24,1.79-5.04,4.85-5.66,.72-.15,1.49-.06,2.24-.06,30.78,0,61.57,.02,92.35-.03,3.34,0,5.98,.84,6.86,4.35,.98,3.9-1.6,6.92-6.01,6.96-9.1,.09-18.2,.03-27.29,.03-6.73,0-13.46,0-20.19,0Z"/>
      <path d="M179.83,111.23c-7.86,0-15.71,.05-23.57-.02-4.18-.04-6.55-2.07-6.72-5.46-.19-3.77,2.26-6.12,6.78-6.16,8.85-.08,17.71-.03,26.56-.03,6.73,0,13.47-.04,20.2,.02,4.64,.04,7.13,2.16,7.11,5.86-.02,3.67-2.53,5.75-7.17,5.78-7.73,.05-15.46,.01-23.2,.01Z"/>
      <path d="M180.04,212.34c7.85,0,15.7-.03,23.55,.01,4.21,.02,6.52,1.98,6.61,5.42,.1,3.62-2.34,5.86-6.59,5.87-15.83,.03-31.65,.03-47.48,0-4.32,0-6.68-2.17-6.59-5.85,.08-3.53,2.28-5.41,6.57-5.44,7.98-.05,15.95-.01,23.93-.01Z"/>
      <path class="cls-1" d="M290.06,245.88v25.22h24.14v10.75h-24.14v25.45h-11.29v-25.45h-24.14v-10.75h24.14v-25.22h11.29Z"/>
    </g>
  </g>
</svg>