<?xml version="1.0" encoding="UTF-8"?>
<svg id="Camada_2" data-name="Camada 2" xmlns="http://www.w3.org/2000/svg" viewBox="0 0 304.73 383.33">
  <g id="Camada_1-2" data-name="Camada 1">
    <path d="M37.76,383.33c-.27-.23-.5-.55-.81-.67-8.02-3.36-11.17-8.01-11.17-16.67,0-73.99,0-147.99,0-221.98,0-1.47,0-2.95,0-4.59-2.98-.26-5.7-.33-8.36-.76C7.68,137.08,.35,129.27,.22,119.39c-.27-19.46-.3-38.93,0-58.39,.17-11.15,9.21-19.53,20.38-19.8,1.59-.04,3.19,0,5.19,0,0-8.01,0-15.71,0-23.4C25.8,6.18,31.96,.01,43.56,.01c55.66,0,111.32-.03,166.98,0,46.54,.03,83.99,30.95,92.62,76.67,1.08,5.72,1.36,11.66,1.37,17.49,.1,60.02,.06,120.04,.06,180.05,0,1.12,.03,2.26-.13,3.36-.42,3.02-2.22,4.7-5.26,4.8-3.04,.1-5-1.47-5.58-4.44-.3-1.57-.25-3.23-.25-4.84-.01-57.9,0-115.79-.02-173.69,0-15.23-7.24-27.12-20.3-31.83-5.12-1.85-10.94-2.08-16.48-2.4-5.71-.33-10.46-2-13.98-6.64-2.74-3.61-3.09-7.79-2.97-12.1,.26-9.35-2.17-17.77-8.67-24.74-6.17-6.61-13.83-10.37-22.85-10.39-55.16-.12-110.32-.07-165.48-.09-3.01,0-5.42,1.01-5.5,4.25-.19,8.45-.06,16.9-.06,25.71,1.66,0,2.99,0,4.33,0,21.84,0,43.68-.01,65.52,0,13.86,.01,22.4,8.49,22.5,22.34,.05,7.74,.08,15.47,0,23.21-.14,13.38-8.74,21.84-22.16,21.88-6.24,.02-12.48,.04-18.72-.01-4.05-.03-6.56-2.24-6.54-5.58,.02-3.35,2.52-5.57,6.58-5.61,6.36-.07,12.73,.02,19.09-.03,6.58-.05,10.36-3.57,10.48-10.04,.15-8.23,.14-16.47,0-24.7-.11-6.48-3.91-10.19-10.35-10.2-28.7-.04-57.41-.04-86.11,0-5.92,0-10.09,3.32-10.19,8.72-.24,12.58-.08,25.18-.08,37.74,16.27-2.99,32.56-.91,48.77-1.46,4.27-.14,6.87,2.3,6.77,5.77-.09,3.32-2.6,5.39-6.71,5.41-7.59,.04-15.17,.01-23.21,.01,0,1.64,0,2.97,0,4.3,0,83.98,0,167.95,0,251.93,0,6.19,1.03,7.25,7.08,7.25,80.75,0,161.49,0,242.24,0,5.99,0,7.03-1,7.03-6.9,.01-19.71,0-39.43,.02-59.14,0-1.49,.02-3.02,.38-4.45,.71-2.8,2.82-4.16,5.58-3.99,2.75,.16,4.67,1.71,5.09,4.6,.19,1.35,.16,2.74,.16,4.11,0,19.09-.29,38.19,.13,57.27,.21,9.69-3.1,16.38-12.36,19.74H37.76ZM287.13,62.51c-4.63-17.47-30.55-43.12-44.87-44.74,6.74,9,8.87,19.18,8.65,30.07-.1,4.61,1.44,6.15,6.06,5.97,10.8-.41,20.79,1.93,30.17,8.7ZM25.46,127.76v-19c-4.78-.4-9.34-.39-12.42,4.05-2.27,3.27-2.38,6.83-.39,10.24,2.84,4.86,7.57,5.12,12.81,4.71Z"/>
    <path d="M165.17,134.52c31.32,0,62.65,0,93.97,0,10.74,0,15.5,4.76,15.5,15.51,0,62.63,0,125.27,0,187.9,0,10.65-4.87,15.44-15.62,15.44-62.65,0-125.29,0-187.94,0-10.38,0-15.35-4.98-15.35-15.37,0-62.76,0-125.52,0-188.28,0-10.23,4.91-15.19,15.09-15.2,31.45-.02,62.89,0,94.34,0Zm-4.2,36.63c6.94,.73,9.17,2.16,9.26,5.75,.09,3.68-2.16,5.19-9.17,6.08v22.37h45.15v-22.69c-4.74,0-9.21,.02-13.68,0-4.67-.02-7.27-2.07-7.26-5.65,.01-3.56,2.6-5.55,7.31-5.57,4.56-.02,9.13,0,13.59,0v-25.39h-45.2v25.11Zm-56.88,.02h45.19v-25.2h-45.19v25.2Zm113.8,.04h45.51c0-7.17-.16-14.12,.07-21.07,.11-3.48-1.1-4.5-4.51-4.45-12.46,.17-24.93,.06-37.4,.08-1.19,0-2.38,.16-3.68,.25v25.2Zm-113.84,102.49h45.25v-22.49h-45.25v22.49Zm0-68.41h45.18v-22.39h-45.18v22.39Zm159.15-22.37h-45.28v22.35h45.28v-22.35Zm-113.83,136.58h-45.19v22.41h45.19v-22.41Zm11.42,22.45h45.4v-22.74c-14.61,0-28.93-.03-43.26,.1-.72,0-2.03,1.41-2.05,2.19-.16,6.71-.09,13.43-.09,20.46Zm.25-68.32h45.11v-22.48h-45.11v22.48Zm102.12-22.45h-45.17v22.55h45.17v-22.55Zm.22,68.03c-14.98,0-29.3-.02-43.63,.07-.67,0-1.91,1.02-1.92,1.58-.13,7.04-.09,14.08-.09,21.29,14.69,0,28.77,.05,42.86-.11,.93-.01,2.62-1.64,2.65-2.56,.23-6.58,.12-13.18,.12-20.26Zm-114.05-79.72v-22.37h-45.25v22.37h45.25Zm11.72-22.47v22.33h45.15v-22.33h-45.15Zm56.88,22.45h45.18v-22.44h-45.18v22.44Zm-113.87,45.8v22.44h45.16v-22.44h-45.16Zm102.2,.15h-45.25v22.26h45.25v-22.26Zm56.89,22.36v-22.32h-45.18v22.32h45.18ZM92.36,171.27v-25.5c-7.71,0-15.15,.01-22.59,0-2.06,0-2.85,1.01-2.82,3.01,.06,4.6,.02,9.2,.02,13.8,0,2.92,0,5.83,0,8.7h25.39Zm-25.25,34.04h25.24v-22.42h-25.24v22.42Zm.13,45.75v22.6h25.08v-22.6h-25.08Zm-.27,68.38c0,6.81-.09,13.27,.09,19.73,.03,1,1.28,2.8,2.01,2.82,7.79,.21,15.58,.13,23.38,.13v-22.68h-25.48Zm25.33-79.91v-22.42h-25.03v22.42h25.03Zm-25.23,68.2h25.25v-22.28h-25.25v22.28Z"/>
  </g>
</svg>